{"scene":0,"asset":{"generator":"ImageToStl.com","version":"2.0"},"scenes":[{"name":"Scene","nodes":[0]}],"nodes":[{"name":"Node0","children":[1]},{"name":"Node1","mesh":0}],"materials":[{"name":"x1","pbrMetallicRoughness":{"baseColorFactor":[0.85,0.85,0.85,1.0],"metallicFactor":0.05,"roughnessFactor":0.5},"doubleSided":true}],"meshes":[{"name":"Mesh0","primitives":[{"indices":2,"material":0,"attributes":{"POSITION":0,"NORMAL":1}}]}],"accessors":[{"bufferView":0,"componentType":5126,"count":12704,"type":"VEC3","min":[-1.8910015,-1.8363097,0.058143616],"max":[2.4291177,1.8363106,4.8128734]},{"bufferView":1,"componentType":5126,"count":12704,"type":"VEC3"},{"bufferView":2,"componentType":5123,"count":12720,"type":"SCALAR"}],"bufferViews":[{"target":34962,"buffer":0,"byteLength":152448,"byteOffset":0},{"target":34962,"buffer":0,"byteLength":152448,"byteOffset":152448},{"target":34963,"buffer":0,"byteLength":25440,"byteOffset":304896}],"buffers":[{"byteLength":330336,"uri":"data:application/octet-stream;base64,"}]}